<svg width="16" height="15" viewBox="0 0 16 15" xmlns="http://www.w3.org/2000/svg">
    <path d="M0 12.326a2.116 2.116 0 0 0 2.182 2.037h11.636A2.116 2.116 0 0 0 16 12.326V7.09a.727.727 0 1 0-1.455 0v5.236a.676.676 0 0 1-.727.582H2.182a.676.676 0 0 1-.727-.582V7.09A.727.727 0 0 0 0 7.09v5.236zM8.727 2.48v6.247a.727.727 0 1 1-1.454 0V2.48L6.247 3.513a.727.727 0 0 1-1.243-.517.727.727 0 0 1 .21-.516L7.485.21c.124-.123.29-.198.465-.21h.138a.727.727 0 0 1 .393.175h.036l2.27 2.305a.73.73 0 0 1-1.033 1.033L8.727 2.48z" fill="#353A3A" fill-rule="nonzero"/>
</svg>
