<?xml version="1.0" encoding="UTF-8"?><svg version="1.1" width="15px" height="8px" viewBox="0 0 15.0 8.0" xmlns="http://www.w3.org/2000/svg" xmlns:xlink="http://www.w3.org/1999/xlink"><defs><clipPath id="i0"><path d="M1440,0 L1440,832 L0,832 L0,0 L1440,0 Z"></path></clipPath><clipPath id="i1"><path d="M1.6736709,0.287082325 L6.99997676,5.61369803 L12.3263136,0.287268229 C12.709245,-0.0955082041 13.3299166,-0.0955082041 13.7126621,0.287268229 C14.0957793,0.670044661 14.0957793,1.29090221 13.7126621,1.67383356 L7.69305803,7.69359251 C7.50166982,7.8848258 7.25079231,7.98041147 6.99997676,7.98041147 C6.74906827,7.98041147 6.49819076,7.88460892 6.30689549,7.6934066 L0.287198515,1.67364766 C-0.0957328382,1.29071631 -0.0957328382,0.669858757 0.287198515,0.287082325 C0.669974947,-0.0956941082 1.29070856,-0.0956941082 1.6736709,0.287082325 Z"></path></clipPath></defs><g transform="translate(-683.0 -393.0)"><g clip-path="url(#i0)"><g transform="translate(497.0 258.0)"><g transform="translate(30.242811501597316 102.0)"><g transform="translate(156.0 33.0)"><g clip-path="url(#i1)"><polygon points="0,1.11022302e-16 14,1.11022302e-16 14,7.98041147 0,7.98041147 0,1.11022302e-16" stroke="none" fill="#353A3A"></polygon></g></g></g></g></g></g></svg>