<svg width="17" height="17" viewBox="0 0 17 17" xmlns="http://www.w3.org/2000/svg">
    <defs>
        <clipPath id="5kzi2oh8ua">
            <path d="M1440 0v1471H0V0h1440z"/>
        </clipPath>
        <clipPath id="zpf699waab">
            <path d="M1.717 0c.949 0 1.718.769 1.718 1.717V18.89a1.717 1.717 0 1 1-3.435 0V1.717C0 .77.769 0 1.717 0z"/>
        </clipPath>
        <clipPath id="dy7snd6hrc">
            <path d="M1.717 0c.949 0 1.718.769 1.718 1.717V18.89a1.717 1.717 0 0 1-3.435 0V1.717C0 .77.769 0 1.717 0z"/>
        </clipPath>
    </defs>
    <g clip-path="url(#5kzi2oh8ua)" transform="translate(-946 -117)">
        <g opacity="60%">
            <g clip-path="url(#zpf699waab)" transform="rotate(45 339.054 1218.012)">
                <path fill="#353A3A" d="M0 0h3.435v20.607H0V0z"/>
            </g>
            <g clip-path="url(#dy7snd6hrc)" transform="scale(-1 1) rotate(45 -615.446 -1086.355)">
                <path fill="#353A3A" d="M0 0h3.435v20.607H0V0z"/>
            </g>
        </g>
    </g>
</svg>
