<svg width="16" height="14" viewBox="0 0 16 14" xmlns="http://www.w3.org/2000/svg">
    <defs>
        <clipPath id="6tit5x15ra">
            <path d="M1440 0v832H0V0h1440z"/>
        </clipPath>
        <clipPath id="qhrxz74job">
            <path d="M15.273 5.09c.401 0 .727.327.727.728v5.237a2.117 2.117 0 0 1-2.031 2.035H2.182A2.116 2.116 0 0 1 0 11.056V5.818a.727.727 0 1 1 1.455 0v5.237a.676.676 0 0 0 .727.581h11.636a.676.676 0 0 0 .727-.581V5.818c0-.401.326-.727.728-.727zM8 0c.402 0 .727.326.727.727v6.248l1.026-1.033a.727.727 0 0 1 1.243.516.727.727 0 0 1-.21.517l-2.27 2.269a.727.727 0 0 1-.465.21h-.138a.727.727 0 0 1-.393-.174h-.036l-2.27-2.305a.73.73 0 1 1 1.033-1.033l1.026 1.033V.727C7.273.326 7.598 0 8 0z"/>
        </clipPath>
    </defs>
    <g clip-path="url(#6tit5x15ra)" transform="translate(-1195 -48)">
        <g clip-path="url(#qhrxz74job)" transform="translate(1195 48)">
            <path fill="#353A3A" d="M0 0h16v13.092H0V0z"/>
        </g>
    </g>
</svg>
