<svg width="18" height="19" viewBox="0 0 18 19" xmlns="http://www.w3.org/2000/svg">
    <defs>
        <clipPath id="azgzuj284a">
            <path d="M1440 0v768H0V0h1440z"/>
        </clipPath>
        <clipPath id="i63qzj62tb">
            <path d="M9 5.938c3.913 0 7.345 2.946 8.922 6.192a.779.779 0 0 1 0 .677C16.697 15.33 13.432 19 9 19c-3.913 0-7.346-2.947-8.923-6.193a.78.78 0 0 1 0-.677C1.637 8.92 5.06 5.937 9 5.937zm0 1.484c-3.218 0-5.888 2.269-7.487 5.047C3.13 15.278 5.81 17.516 9 17.516c3.173 0 5.863-2.226 7.487-5.047C14.879 9.676 12.204 7.422 9 7.422zm0 1.4c1.905 0 3.454 1.636 3.454 3.647 0 2.01-1.55 3.646-3.454 3.646-1.905 0-3.454-1.636-3.454-3.646S7.096 8.823 9 8.823zM2.874 2.409l1.075 2.55c.158.374-.002.813-.356.98-.354.166-.77-.001-.929-.377L1.59 3.011c-.158-.374.002-.812.356-.979.355-.167.77.002.929.376zm12.786-.376c.354.167.514.606.356.98l-1.075 2.55c-.16.376-.576.541-.929.376-.355-.167-.514-.606-.356-.98l1.075-2.55c.158-.374.574-.543.929-.376zM9 0c.388 0 .703.332.703.742v2.969c0 .41-.315.742-.703.742-.388 0-.703-.332-.703-.742V.742C8.297.332 8.612 0 9 0z"/>
        </clipPath>
    </defs>
    <g clip-path="url(#azgzuj284a)" transform="translate(-898 -390)">
        <g clip-path="url(#i63qzj62tb)" transform="translate(898 390)">
            <path d="M0 0h18v19H0V0z"/>
        </g>
    </g>
</svg>
