<?xml version="1.0" encoding="UTF-8"?><svg version="1.1" width="15px" height="13px" viewBox="0 0 15.0 13.0" xmlns="http://www.w3.org/2000/svg" xmlns:xlink="http://www.w3.org/1999/xlink"><defs><clipPath id="i0"><path d="M1440,0 L1440,832 L0,832 L0,0 L1440,0 Z"></path></clipPath><clipPath id="i1"><path d="M5.66265858,0.2027923 C6.1303345,-0.139634368 6.78701577,-0.0380968749 7.12944244,0.42954625 C7.42365848,0.86839418 7.35944323,1.45528483 6.97726739,1.8201114 L4.07544653,4.72193226 C3.90369205,4.89526096 3.703044,5.03733474 3.48248856,5.14172551 L3.25684968,5.24667383 L13.6047862,5.24667383 C13.6655578,5.24588671 13.7262966,5.25037981 13.7863139,5.26012033 C14.3584462,5.35293399 14.7470174,5.89194197 14.6542365,6.46407426 C14.5535189,6.99104598 14.0831537,7.36554747 13.5470318,7.34564009 L3.24110744,7.34564009 L3.55595238,7.48732031 C3.7496804,7.58698841 3.92671509,7.71623882 4.08069394,7.87038166 L6.97726739,10.7774499 C7.35944323,11.1422765 7.42365848,11.7291672 7.12944244,12.1680151 C7.10169673,12.2042223 7.07162248,12.2385928 7.03941647,12.2708972 C6.63011805,12.6813107 5.96563124,12.682229 5.55521774,12.2729634 L0.307802083,7.02554773 C-0.10264421,6.61464229 -0.102283451,5.95015549 0.307802083,5.5405291 L5.55521774,0.293113442 C5.58896519,0.260645058 5.62487719,0.230472418 5.66265858,0.2027923 Z"></path></clipPath></defs><g transform="translate(-274.0 -73.0)"><g clip-path="url(#i0)"><g transform="translate(274.0 72.99999999999976)"><g clip-path="url(#i1)"><polygon points="5.55111512e-17,0 14.6679284,0 14.6679284,12.579311 5.55111512e-17,12.579311 5.55111512e-17,0" stroke="none" fill="#353A3A"></polygon></g></g></g></g></svg>