<?xml version="1.0" encoding="UTF-8"?><svg version="1.1" width="14px" height="15px" viewBox="0 0 14.0 15.0" xmlns="http://www.w3.org/2000/svg" xmlns:xlink="http://www.w3.org/1999/xlink"><defs><clipPath id="i0"><path d="M1440,0 L1440,845 L0,845 L0,0 L1440,0 Z"></path></clipPath><clipPath id="i1"><path d="M5.46706857,0 C6.92744501,0 8.30026295,0.56877446 9.33281281,1.60132432 C10.3653627,2.63387418 10.9341371,4.00669213 10.9341371,5.46706857 C10.9341371,6.80493872 10.4519201,8.06597271 9.57795886,9.06257375 L12.4254794,11.9100943 C12.567851,12.0524658 12.567851,12.2831078 12.4254794,12.4254794 C12.3542936,12.4966652 12.2610402,12.5322581 12.1677868,12.5322581 C12.0745334,12.5322581 11.9812801,12.4966652 11.9100943,12.4254794 L9.06257375,9.57795886 C8.06597271,10.4519201 6.80493872,10.9341371 5.46706857,10.9341371 C4.00669213,10.9341371 2.63387418,10.3653627 1.60132432,9.33281281 C0.56877446,8.30026295 0,6.92744501 0,5.46706857 C0,4.00669213 0.56877446,2.63387418 1.60132432,1.60132432 C2.63387418,0.56877446 4.00669213,0 5.46706857,0 Z M5.46706853,0.728942439 C4.20156316,0.728942439 3.01169272,1.22190404 2.11670939,2.11670939 C1.22190404,3.01169272 0.728942439,4.20156316 0.728942439,5.46706853 C0.728942439,6.7325739 1.22190404,7.92244434 2.11670939,8.81742767 C3.01169272,9.71223302 4.20156316,10.2051946 5.46706853,10.2051946 C6.7325739,10.2051946 7.92244434,9.71223302 8.81742767,8.81742767 C9.71223302,7.92244434 10.2051946,6.7325739 10.2051946,5.46706853 C10.2051946,4.20156316 9.71223302,3.01169272 8.81742767,2.11670939 C7.92244434,1.22190404 6.7325739,0.728942439 5.46706853,0.728942439 Z"></path></clipPath></defs><g transform="translate(-321.0 -176.0)"><g clip-path="url(#i0)"><g transform="translate(279.0 128.0)"><g transform="translate(25.0645161290322 34.9112903225805)"><g transform="translate(17.90322580645162 14.322580645161292)"><g opacity="34%"><g clip-path="url(#i1)"><polygon points="0,0 12.5322581,0 12.5322581,12.5322581 0,12.5322581 0,0" stroke="none" fill="#3B3029"></polygon></g><path d="M12.4254794,11.9100943 L9.57795886,9.06257375 C10.4519201,8.06597271 10.9341371,6.80493872 10.9341371,5.46706857 C10.9341371,4.00669213 10.3653627,2.63387418 9.33281281,1.60132432 C8.30026295,0.56877446 6.92744501,0 5.46706857,0 C4.00669213,0 2.63387418,0.56877446 1.60132432,1.60132432 C0.56877446,2.63387418 0,4.00669213 0,5.46706857 C0,6.92744501 0.56877446,8.30026295 1.60132432,9.33281281 C2.63387418,10.3653627 4.00669213,10.9341371 5.46706857,10.9341371 C6.80493872,10.9341371 8.06597271,10.4519201 9.06257375,9.57795886 L11.9100943,12.4254794 C11.9812801,12.4966652 12.0745334,12.5322581 12.1677868,12.5322581 C12.2610402,12.5322581 12.3542936,12.4966652 12.4254794,12.4254794 C12.567851,12.2831078 12.567851,12.0524658 12.4254794,11.9100943 L12.4254794,11.9100943 Z M2.11670939,8.81742767 C1.22190404,7.92244434 0.728942439,6.7325739 0.728942439,5.46706853 C0.728942439,4.20156316 1.22190404,3.01169272 2.11670939,2.11670939 C3.01169272,1.22190404 4.20156316,0.728942439 5.46706853,0.728942439 C6.7325739,0.728942439 7.92244434,1.22190404 8.81742767,2.11670939 C9.71223302,3.01169272 10.2051946,4.20156316 10.2051946,5.46706853 C10.2051946,6.7325739 9.71223302,7.92244434 8.81742767,8.81742767 C7.92244434,9.71223302 6.7325739,10.2051946 5.46706853,10.2051946 C4.20156316,10.2051946 3.01169272,9.71223302 2.11670939,8.81742767 Z" stroke="#3B3029" stroke-width="0.5" fill="none" stroke-miterlimit="10"></path></g></g></g></g></g></g></svg>