<svg width="14" height="14" viewBox="0 0 14 14" xmlns="http://www.w3.org/2000/svg">
    <path d="M5.698.333a5.37 5.37 0 0 1 5.365 5.365 5.32 5.32 0 0 1-.927 3.003l-.143.2-.06.075 3.535 3.535a.677.677 0 0 1 .118.799l-.052.082-.066.076a.676.676 0 0 1-.875.07l-.082-.07-3.535-3.535-.076.06a5.328 5.328 0 0 1-2.704 1.046l-.248.018-.25.006A5.37 5.37 0 0 1 .333 5.698 5.37 5.37 0 0 1 5.698.333zm0 1.354c-2.21 0-4.01 1.8-4.01 4.01 0 2.212 1.8 4.011 4.01 4.011s4.01-1.8 4.01-4.01c0-2.211-1.8-4.01-4.01-4.01z" fill="#3b3129" fill-rule="nonzero"/>
</svg>
