<svg width="30" height="30" viewBox="0 0 30 30" xmlns="http://www.w3.org/2000/svg">
    <defs>
        <clipPath id="hiajw4d7ca">
            <path d="M1440 0v832H0V0h1440z"/>
        </clipPath>
        <clipPath id="ulkdltotfb">
            <path d="M15 0c8.284 0 15 6.716 15 15 0 8.284-6.716 15-15 15-8.284 0-15-6.716-15-15C0 6.716 6.716 0 15 0z"/>
        </clipPath>
        <clipPath id="wsiafwfrzc">
            <path d="M5.455.135a.462.462 0 0 1 .509-.097.478.478 0 0 1 .286.438v2.698C11.09 3.26 15 7.283 15 12.216a.475.475 0 0 1-.469.476.468.468 0 0 1-.411-.247l-.013-.024c-1.402-2.572-4.073-4.17-6.97-4.17H6.25v2.696a.478.478 0 0 1-.286.439.465.465 0 0 1-.509-.097L.142 6.053a.478.478 0 0 1 0-.683z"/>
        </clipPath>
    </defs>
    <g clip-path="url(#hiajw4d7ca)" transform="translate(-1366 -181)">
        <g clip-path="url(#ulkdltotfb)" transform="translate(1366 181)">
            <path fill="#C0BDB4" d="M0 0h30v30H0V0z"/>
        </g>
        <g clip-path="url(#wsiafwfrzc)" transform="matrix(-1 0 0 1 1389 189)">
            <path fill="#FFF" d="M0 0h15v12.692H0V0z"/>
        </g>
    </g>
</svg>
