<svg width="41" height="30" viewBox="0 0 41 30" xmlns="http://www.w3.org/2000/svg">
    <defs>
        <clipPath id="bxgjs3q96a">
            <path d="M1440 0v832H0V0h1440z"/>
        </clipPath>
        <clipPath id="epi37ysdeb">
            <path d="M4.41-.024a.4.4 0 0 1 .116.283v3.867a.4.4 0 0 1-.4.4H.26a.4.4 0 0 1-.283-.682L3.844-.024a.4.4 0 0 1 .565 0z"/>
        </clipPath>
        <clipPath id="jn2pw9ayic">
            <path d="M15 0c8.284 0 15 6.716 15 15 0 8.284-6.716 15-15 15-8.284 0-15-6.716-15-15C0 6.716 6.716 0 15 0z"/>
        </clipPath>
        <clipPath id="3lp6dpulyd">
            <path d="M6.136 7.89a6.136 6.136 0 0 1 6.137 6.136c0 3.389-12.273 3.389-12.273 0A6.136 6.136 0 0 1 6.136 7.89zm0-7.89a3.506 3.506 0 1 1 0 7.013 3.506 3.506 0 0 1 0-7.013z"/>
        </clipPath>
    </defs>
    <g clip-path="url(#bxgjs3q96a)" transform="translate(-1366 -39)">
        <g clip-path="url(#epi37ysdeb)" transform="rotate(45 640.506 1718.908)">
            <path fill="#131313" opacity="50%" d="M-.141-.141h4.667v4.667H-.14V-.14z"/>
        </g>
        <g clip-path="url(#jn2pw9ayic)" transform="translate(1366 39)">
            <path fill="#C0BDB4" d="M0 0h30v30H0V0z"/>
        </g>
        <g clip-path="url(#3lp6dpulyd)" transform="translate(1374.545 45.818)">
            <path fill="#FFF" d="M0 0h12.273v16.568H0V0z"/>
        </g>
    </g>
</svg>
