<?xml version="1.0" encoding="UTF-8"?><svg version="1.1" width="30px" height="30px" viewBox="0 0 30.0 30.0" xmlns="http://www.w3.org/2000/svg" xmlns:xlink="http://www.w3.org/1999/xlink"><defs><clipPath id="i0"><path d="M1440,0 L1440,832 L0,832 L0,0 L1440,0 Z"></path></clipPath><clipPath id="i1"><path d="M15,0 C23.2842712,0 30,6.71572875 30,15 C30,23.2842712 23.2842712,30 15,30 C6.71572875,30 0,23.2842712 0,15 C0,6.71572875 6.71572875,0 15,0 Z"></path></clipPath><clipPath id="i2"><path d="M6.13636364,7.88961039 C9.52538369,7.88961039 12.2727273,10.636954 12.2727273,14.025974 C12.2727273,17.4149941 0,17.4149941 0,14.025974 C0,10.636954 2.74734358,7.88961039 6.13636364,7.88961039 Z M6.13636364,0 C8.07294653,0 9.64285714,1.56991062 9.64285714,3.50649351 C9.64285714,5.4430764 8.07294653,7.01298701 6.13636364,7.01298701 C4.19978075,7.01298701 2.62987013,5.4430764 2.62987013,3.50649351 C2.62987013,1.56991062 4.19978075,0 6.13636364,0 Z"></path></clipPath></defs><g transform="translate(-1366.0 -39.0)"><g clip-path="url(#i0)"><g transform="translate(1366.0 39.0)"><g clip-path="url(#i1)"><polygon points="0,0 30,0 30,30 0,30 0,0" stroke="none" fill="#C0BDB4"></polygon></g><g transform="translate(8.545454545455286 6.818181818181733)"><g clip-path="url(#i2)"><polygon points="0,0 12.2727273,0 12.2727273,16.5677391 0,16.5677391 0,0" stroke="none" fill="#FFFFFF"></polygon></g></g></g></g></g></svg>