<svg width="16" height="16" viewBox="0 0 16 16" xmlns="http://www.w3.org/2000/svg">
    <path d="M8 0a8 8 0 1 0 .001 16.001A8 8 0 0 0 8 0zm3.868 10.696a.28.28 0 0 1 .082.2c0 .075-.029.15-.082.2l-.772.775a.278.278 0 0 1-.2.083.287.287 0 0 1-.2-.083L8 9.171l-2.693 2.704a.272.272 0 0 1-.2.082.287.287 0 0 1-.2-.082l-.771-.775a.28.28 0 0 1-.082-.2c0-.075.028-.15.082-.2l2.703-2.714-2.71-2.679a.287.287 0 0 1 0-.403l.771-.775a.28.28 0 0 1 .2-.083.28.28 0 0 1 .2.083l2.704 2.667 2.703-2.667a.28.28 0 0 1 .2-.083.28.28 0 0 1 .2.083l.772.775c.11.11.11.292 0 .403L9.168 7.986l2.7 2.71z" fill="#7F7F7F" fill-rule="nonzero"/>
</svg>
